<?xml version="1.0" encoding="utf-8"?>
<!-- Generator: Adobe Illustrator 26.0.0, SVG Export Plug-In . SVG Version: 6.00 Build 0)  -->
<svg version="1.1" id="Layer_1" xmlns="http://www.w3.org/2000/svg" xmlns:xlink="http://www.w3.org/1999/xlink" x="0px" y="0px"
	 viewBox="0 0 782.6 518.5" style="enable-background:new 0 0 782.6 518.5;" xml:space="preserve">
<style type="text/css">
	.st0{fill:#F0F0F0;}
	.st1{fill:#F2F2F2;}
	.st2{fill:#FFFFFF;}
	.st3{fill:#00B25E;}
	.st4{fill:#E6E6E6;}
	.st5{fill:#FFCA28;}
	.st6{fill:#FFB8B8;}
	.st7{fill:#2F2E41;}
	.st8{fill:#3F3D56;}
	.st9{fill:#FFB6B6;}
	.st10{fill:#9E616A;}
</style>
<path class="st0" d="M168,302.9c-36.6-36-52-73.6-43.5-105.8c10.9-41.3,59.6-69.9,133.4-78.4l0.3,2.4
	c-72.8,8.4-120.7,36.3-131.4,76.7c-8.3,31.4,6.9,68.1,42.9,103.5L168,302.9z"/>
<path class="st0" d="M521.1,430.8c-45.7,0-95.3-6.8-144.6-19.8c-61-16.1-116.9-40.5-161.6-70.4l1.3-2c44.6,29.8,100.2,54,160.9,70.1
	c54.9,14.5,110.1,21.3,159.8,19.5l0.1,2.4C531.7,430.7,526.4,430.8,521.1,430.8z"/>
<path class="st0" d="M625.8,415.8l-0.8-2.3c40.8-13.8,66.4-36.1,73.9-64.3c9.5-35.9-11.2-77.7-58.2-117.5
	c-47.3-40-115.5-73.2-192.1-93.5l0.6-2.3c76.9,20.4,145.4,53.7,193,93.9c47.8,40.4,68.8,83,59,119.9
	C693.6,378.9,667.5,401.7,625.8,415.8z"/>
<path class="st0" d="M250.8,431.8C161.1,392,91.9,340.3,56.1,286.4l2-1.3C93.6,338.6,162.4,390,251.8,429.6L250.8,431.8z"/>
<path class="st0" d="M566.3,500.7c-9.3,0-18.7-0.2-28.2-0.6l0.1-2.4c71.4,3.1,134.5-5.5,182.3-24.7l0.9,2.2
	C679.6,492,626.4,500.7,566.3,500.7z"/>
<path class="st0" d="M514.2,120.8c-14.8-4.8-30.1-9.3-45.3-13.4c-87.8-23.2-174.1-31.5-249.6-23.9l-0.2-2.4
	c75.8-7.7,162.4,0.6,250.4,23.9c15.3,4.1,30.6,8.6,45.5,13.4L514.2,120.8z"/>
<path class="st0" d="M111.9,306.5c-36.6-36-52-73.6-43.5-105.8c10.9-41.3,59.6-69.9,133.4-78.4l0.3,2.4
	c-72.8,8.4-120.7,36.3-131.4,76.7c-8.3,31.4,6.9,68.1,42.9,103.5L111.9,306.5z"/>
<path class="st0" d="M465,434.3c-45.7,0-95.3-6.8-144.6-19.8c-61-16.1-116.9-40.5-161.6-70.4l1.3-2c44.6,29.8,100.2,54,160.9,70.1
	c54.9,14.5,110.1,21.3,159.8,19.5l0.1,2.4C475.7,434.2,470.4,434.3,465,434.3z"/>
<path class="st0" d="M569.8,419.3l-0.8-2.3c40.8-13.8,66.4-36.1,73.9-64.3c9.5-35.9-11.2-77.7-58.2-117.5
	c-47.3-40-115.5-73.2-192.1-93.5l0.6-2.3c76.9,20.4,145.4,53.7,193,93.9c47.8,40.4,68.8,83,59,119.9
	C637.5,382.4,611.4,405.3,569.8,419.3z"/>
<path class="st0" d="M194.7,435.3C105,395.5,35.8,343.9,0,289.9l2-1.3c35.6,53.6,104.4,104.9,193.7,144.5L194.7,435.3z"/>
<path class="st0" d="M510.2,504.3c-9.3,0-18.7-0.2-28.2-0.6l0.1-2.4c71.4,3.1,134.5-5.5,182.3-24.7l0.9,2.2
	C623.5,495.6,570.4,504.3,510.2,504.3z"/>
<path class="st0" d="M458.1,124.4c-14.8-4.8-30.1-9.3-45.3-13.4C325,87.8,238.7,79.5,163.2,87.2l-0.2-2.4
	c75.8-7.7,162.4,0.6,250.4,23.9c15.3,4.1,30.6,8.6,45.5,13.4L458.1,124.4z"/>
<path class="st1" d="M40.7,242.6c17.1-19.2,44.5-30.9,69.3-23.9c-22.9,16.2-39.3,39.9-46.3,67.1c-2.7,10.5-4.6,22.4-13.3,28.8
	c-5.4,4-12.6,4.9-19.3,4c-6.7-0.9-13-3.5-19.2-6.1l-1.7,0.1C15.1,287.3,23.5,261.8,40.7,242.6z"/>
<path class="st2" d="M109.9,219.2c-20.7,5-39.3,16.4-53.2,32.6c-3,3.4-5.5,7.3-7.4,11.5c-1.7,4.2-2.2,8.7-1.5,13.1
	c0.6,4.1,1.6,8.3,1.1,12.5c-0.5,4.3-2.9,8.2-6.5,10.7c-4.4,3.2-9.6,4.6-14.8,5.8c-5.7,1.3-11.7,2.7-16.4,6.5
	c-0.6,0.5-1.3-0.4-0.7-0.9c8.1-6.6,19.5-5.8,28.5-10.6c4.2-2.2,7.8-5.8,8.6-10.6c0.8-4.2-0.3-8.5-0.9-12.7c-0.7-4.3-0.4-8.7,1-12.9
	c1.6-4.3,3.9-8.3,6.9-11.8c6.5-8,14.3-14.9,22.9-20.5c9.9-6.4,20.7-11.2,32.2-13.9C110.5,217.9,110.6,219,109.9,219.2L109.9,219.2z"
	/>
<path class="st2" d="M60.8,246.3c-5-5.6-5.2-13.9-0.5-19.7c0.5-0.6,1.4,0.1,0.9,0.7c-4.4,5.4-4.2,13.2,0.5,18.3
	C62.2,246.2,61.3,246.9,60.8,246.3z"/>
<path class="st2" d="M47.3,274.4c7.4,0.5,14.6-1.8,20.4-6.5c0.6-0.5,1.3,0.4,0.7,0.9c-6,4.8-13.6,7.2-21.2,6.7
	C46.4,275.5,46.6,274.3,47.3,274.4z"/>
<path class="st2" d="M87.7,227c1.4,2.5,4.1,4.1,7,4.3c0.7,0,0.6,1.2-0.2,1.1c-3.2-0.2-6.1-2-7.7-4.7c-0.2-0.3-0.1-0.6,0.1-0.8
	C87.1,226.7,87.5,226.7,87.7,227L87.7,227z"/>
<path class="st1" d="M145.2,298.4c-0.5,0-0.9,0-1.4,0c-6.1-0.1-12.3,0.2-18.4,1.1c-0.5,0.1-0.9,0.1-1.4,0.2
	c-14.6,2.2-28.7,7.1-41.6,14.5c-5.1,2.9-10,6.3-14.6,9.9c-6.4,5.1-12.9,11.1-20.3,13.7c-0.8,0.3-1.6,0.5-2.4,0.7l-34.6-23.9
	c-0.1-0.1-0.1-0.2-0.2-0.3L9,313.4c0.2-0.2,0.5-0.4,0.7-0.6c0.1-0.1,0.3-0.2,0.4-0.4c0.1-0.1,0.2-0.2,0.3-0.2c0,0,0.1-0.1,0.1-0.1
	c0.1-0.1,0.2-0.1,0.2-0.2c1.3-1.2,2.7-2.3,4-3.5c0,0,0,0,0,0c10.3-8.8,21.3-16.8,33.3-22.9c0.4-0.2,0.7-0.4,1.1-0.5
	c5.4-2.7,11-5,16.8-6.8c3.2-1,6.4-1.8,9.6-2.4c8.4-1.7,17-2,25.5-1c16.9,2,33,9.4,43.5,22.6C144.6,297.8,144.9,298.1,145.2,298.4z"
	/>
<path class="st2" d="M144.8,298.8c-19.6-8.5-41.3-10.6-62.1-6c-4.5,0.9-8.8,2.5-12.8,4.8c-3.8,2.3-7,5.6-9.1,9.6
	c-2,3.6-3.7,7.6-6.6,10.7c-3,3.1-7.3,4.8-11.7,4.7c-5.4-0.1-10.4-2.1-15.3-4.2c-5.4-2.4-11-4.9-17-4.7c-0.7,0-0.7-1.1,0-1.1
	c10.5-0.4,19,7.1,29.1,8.7c4.7,0.7,9.7,0.1,13.3-3.3c3.2-2.9,4.9-7,6.9-10.7c2-3.9,4.9-7.2,8.5-9.7c3.9-2.5,8.1-4.2,12.6-5.3
	c10-2.5,20.4-3.3,30.7-2.6c11.8,0.8,23.3,3.6,34.1,8.3C146,298.1,145.5,299.1,144.8,298.8L144.8,298.8z"/>
<path class="st2" d="M89.3,291c-0.6-7.4,4.3-14.2,11.5-16c0.7-0.2,1,0.9,0.3,1.1c-6.7,1.7-11.3,8-10.7,14.9
	C90.5,291.7,89.3,291.7,89.3,291z"/>
<path class="st2" d="M61.5,305.2c5.6,4.8,12.8,7.4,20.2,7.1c0.7,0,0.7,1.1,0,1.1c-7.7,0.2-15.2-2.4-21-7.5
	C60.2,305.5,61,304.7,61.5,305.2L61.5,305.2z"/>
<path class="st2" d="M122.3,291.7c-0.4,2.9,0.8,5.7,3,7.6c0.6,0.5-0.2,1.3-0.8,0.8c-2.4-2.1-3.7-5.2-3.3-8.4c0-0.3,0.3-0.6,0.6-0.6
	C122.1,291.1,122.3,291.4,122.3,291.7L122.3,291.7z"/>
<path class="st1" d="M712.7,400.2c-9.7-23.9-31.5-44.1-57.2-45.8c16.1,22.9,23.6,50.8,21.1,78.7c-1,10.8-3.2,22.6,2.8,31.6
	c3.8,5.6,10.2,8.9,16.8,10.3c6.6,1.4,13.4,1.1,20.1,0.7l1.5,0.7C721.7,450.9,722.4,424.1,712.7,400.2z"/>
<path class="st2" d="M655.3,354.9c17.8,11.7,31.5,28.7,39.1,48.6c1.7,4.3,2.7,8.8,3.1,13.3c0.2,4.5-0.9,8.9-3,12.8
	c-1.9,3.7-4.3,7.3-5.3,11.4c-1,4.3,0,8.7,2.5,12.3c3,4.5,7.5,7.6,11.9,10.4c5,3.2,10.1,6.4,13.3,11.6c0.4,0.6,1.3,0,0.9-0.6
	c-5.4-9-16.4-12-23.2-19.6c-3.2-3.5-5.4-8-4.5-12.9c0.7-4.2,3.2-7.9,5.1-11.7c2.1-3.8,3.3-8.1,3.4-12.4c-0.1-4.6-0.9-9.1-2.5-13.4
	c-3.4-9.7-8.4-18.8-14.7-27c-7.1-9.4-15.8-17.5-25.6-23.9C655.2,353.5,654.7,354.5,655.3,354.9L655.3,354.9z"/>
<path class="st2" d="M692.4,396.9c6.5-3.6,9.5-11.4,7.1-18.4c-0.2-0.7-1.3-0.3-1.1,0.3c2.3,6.6-0.5,13.8-6.6,17.1
	C691.1,396.3,691.8,397.3,692.4,396.9L692.4,396.9z"/>
<path class="st2" d="M695.7,427.9c-7.1-2-13.2-6.6-17-12.9c-0.4-0.6-1.3,0-0.9,0.6c4,6.5,10.4,11.3,17.7,13.4
	C696.2,429.2,696.4,428.1,695.7,427.9L695.7,427.9z"/>
<path class="st2" d="M673.6,369.7c-2.2,1.9-5.2,2.5-8,1.7c-0.7-0.2-0.9,0.9-0.2,1.1c3.1,0.9,6.4,0.2,8.8-1.9
	c0.3-0.2,0.3-0.5,0.2-0.8C674.2,369.6,673.9,369.6,673.6,369.7L673.6,369.7z"/>
<path class="st1" d="M595.5,417.7c0.4,0.1,0.9,0.3,1.3,0.4c5.8,1.9,11.5,4.3,16.9,7.2c0.4,0.2,0.9,0.4,1.3,0.7
	c13,7,24.7,16.4,34.3,27.6c3.8,4.5,7.3,9.2,10.4,14.3c4.3,6.9,8.4,14.8,14.5,19.7c0.6,0.5,1.3,1,2,1.4l40.6-10.9
	c0.1-0.1,0.2-0.1,0.2-0.2l1.6-0.4c-0.1-0.3-0.3-0.5-0.4-0.8c-0.1-0.2-0.2-0.3-0.3-0.5c-0.1-0.1-0.1-0.2-0.2-0.3c0,0,0-0.1-0.1-0.1
	c0-0.1-0.1-0.2-0.1-0.3c-0.9-1.5-1.7-3.1-2.6-4.6c0,0,0,0,0,0c-6.7-11.7-14.4-23-23.7-32.7c-0.3-0.3-0.6-0.6-0.9-0.9
	c-4.2-4.4-8.7-8.4-13.5-12c-2.7-2-5.4-3.8-8.2-5.5c-7.3-4.4-15.3-7.6-23.7-9.5c-16.6-3.8-34.2-2.2-48.5,6.6
	C596.2,417.2,595.8,417.5,595.5,417.7z"/>
<path class="st2" d="M595.7,418.2c21.3-1.4,42.5,3.9,60.5,15.3c3.9,2.4,7.5,5.3,10.5,8.8c2.8,3.5,4.7,7.6,5.3,12.1
	c0.7,4.1,0.9,8.4,2.6,12.3c1.8,4,5.2,7,9.4,8.3c5.1,1.7,10.5,1.5,15.8,1.1c5.9-0.4,12-1,17.6,1.3c0.7,0.3,1.1-0.8,0.4-1.1
	c-9.7-3.9-20.3,0.3-30.3-1.6c-4.7-0.9-9.1-3.2-11.4-7.6c-2-3.8-2.2-8.2-2.9-12.4c-0.6-4.3-2.2-8.4-4.8-12c-2.8-3.6-6.2-6.7-10.1-9.2
	c-8.6-5.7-18.1-10-28-12.7c-11.3-3.2-23.1-4.4-34.9-3.7C594.8,417.1,595,418.2,595.7,418.2L595.7,418.2z"/>
<path class="st2" d="M650.6,429.5c3.1-6.8,0.8-14.8-5.4-18.9c-0.6-0.4-1.3,0.5-0.7,0.9c5.8,3.8,7.9,11.3,5,17.6
	C649.3,429.7,650.3,430.1,650.6,429.5L650.6,429.5z"/>
<path class="st2" d="M672,452.2c-6.9,2.7-14.5,2.6-21.4-0.1c-0.7-0.3-1.1,0.8-0.4,1.1c7.1,2.8,15.1,2.8,22.3,0
	C673.1,453,672.6,451.9,672,452.2L672,452.2z"/>
<path class="st2" d="M619.2,419c-0.6,2.8-2.6,5.2-5.4,6.2c-0.7,0.3-0.2,1.3,0.5,1c3-1.2,5.2-3.7,5.9-6.8c0.1-0.3-0.1-0.6-0.3-0.7
	C619.7,418.6,619.3,418.7,619.2,419L619.2,419z"/>
<circle class="st3" cx="524.7" cy="471.9" r="9.5"/>
<circle class="st4" cx="558.5" cy="309.3" r="9.5"/>
<circle class="st4" cx="380.9" cy="44.5" r="9.5"/>
<path class="st1" d="M180.8,410.7c0,2.4,0.1,4.9,0.2,7.3c0.2,2.9,0.5,5.7,0.9,8.6c1.4,9.6,4.1,18.9,8,27.7c0.2,0.4,0.4,0.9,0.6,1.3
	l0.3,0.7c0.1,0.2,0.2,0.4,0.3,0.7c0.1,0.3,0.3,0.6,0.4,0.8c0.2,0.3,0.3,0.7,0.5,1c0,0,0,0.1,0.1,0.1c0.1,0.3,0.3,0.6,0.5,0.9
	c0,0.1,0.1,0.1,0.1,0.2c0.2,0.3,0.4,0.7,0.5,1c0.2,0.4,0.4,0.7,0.6,1.1c0.5,0.9,1,1.8,1.5,2.7c0.1,0.3,0.3,0.5,0.5,0.8
	c0.1,0.2,0.3,0.5,0.4,0.7c0.1,0.2,0.2,0.3,0.3,0.5c0.2,0.3,0.3,0.5,0.5,0.8c0.4,0.6,0.8,1.2,1.1,1.8h0c0.2,0.3,0.4,0.5,0.5,0.8v0
	c0.5,0.8,1.1,1.6,1.6,2.4c0,0,0,0,0,0c0,0,0,0,0,0c0.4,0.6,0.9,1.3,1.4,1.9v0c0.3,0.4,0.6,0.8,0.9,1.2c0.2,0.3,0.5,0.7,0.7,1
	c0,0.1,0.1,0.1,0.2,0.2v0c0.1,0.1,0.1,0.2,0.2,0.3c1.1,1.4,2.2,2.7,3.3,4l0.2,0.2c0.1,0.1,0.1,0.1,0.2,0.2c0.1,0.1,0.2,0.2,0.3,0.3
	c0.1,0.1,0.2,0.2,0.3,0.3c5.9,6.6,12.5,12.5,19.8,17.5c1,0.7,2,1.3,3,2c0.2,0.2,0.5,0.3,0.8,0.5c0.1,0,0.1,0.1,0.2,0.2
	c0.1,0.1,0.3,0.2,0.4,0.2c0.1,0.1,0.3,0.2,0.4,0.2c0.5,0.3,1.1,0.7,1.6,1c0.1,0.1,0.3,0.2,0.4,0.2c0.1,0.1,0.3,0.2,0.4,0.2
	c0,0,0,0,0,0h0v0h0c0.7,0.4,1.4,0.8,2,1.1c0.4,0.2,0.8,0.4,1.1,0.6c0.9,0.5,1.7,0.9,2.6,1.3c0.3,0.2,0.6,0.3,0.9,0.5
	c0.3,0.1,0.5,0.2,0.8,0.4c0.1,0,0.1,0.1,0.2,0.1c0.2,0.1,0.4,0.2,0.6,0.3c0.2,0.1,0.5,0.2,0.7,0.3c0.3,0.1,0.5,0.2,0.8,0.3
	c1,0.5,2,0.9,3,1.3c3.6,1.5,7.3,2.8,11.1,3.8c0.2,0,0.3,0.1,0.5,0.2c1.6,0.4,3.2,0.9,4.9,1.2c2.9,0.7,5.7,1.2,8.6,1.6h0
	c0.3,0,0.7,0.1,1,0.2c0,0,0.1,0,0.1,0c0,0,0,0,0,0c0.4,0,0.8,0.1,1.1,0.2c0,0,0.1,0,0.1,0c0.4,0,0.7,0.1,1.1,0.1
	c0.4,0,0.8,0.1,1.2,0.1c0.3,0,0.6,0.1,0.9,0.1c0,0,0.1,0,0.1,0c0.3,0,0.5,0,0.8,0.1h0c0.2,0,0.5,0,0.7,0.1c2.8,0.2,5.6,0.3,8.4,0.3
	c3.1,0,6.1-0.1,9.1-0.4h0c0.6-0.1,1.3-0.1,1.9-0.2c0.2,0,0.3,0,0.5,0c0,0,0.1,0,0.1,0c0,0,0.1,0,0.2,0c0,0,0.1,0,0.1,0
	c0.2,0,0.4,0,0.7-0.1l0.8-0.1c0.2,0,0.5-0.1,0.8-0.1c0.1,0,0.1,0,0.2,0c0.2,0,0.4,0,0.5-0.1c0.1,0,0.2,0,0.3,0c0.2,0,0.3,0,0.5-0.1
	h0c5.5-0.8,10.9-2,16.2-3.7c0.3-0.1,0.6-0.2,0.8-0.3c0,0,0,0,0,0c0.1,0,0.2,0,0.2-0.1c0.8-0.2,1.5-0.5,2.2-0.8c1-0.3,2-0.7,3-1.1
	c0.3-0.1,0.5-0.2,0.8-0.3c0.5-0.2,1.1-0.4,1.6-0.7c0.9-0.4,1.8-0.8,2.8-1.2c0.8-0.4,1.7-0.8,2.5-1.2c0,0,0,0,0.1,0
	c0.2-0.1,0.4-0.2,0.6-0.3h0c4.6-2.2,9-4.7,13.3-7.6c1.4-0.9,2.7-1.8,4-2.8c1.1-0.8,2.1-1.6,3.1-2.4c5.1-4.1,9.9-8.6,14.2-13.6v0
	c0.3-0.3,0.6-0.7,0.9-1c0,0,0.1-0.1,0.1-0.1c0.2-0.2,0.4-0.5,0.6-0.7v0c0.2-0.3,0.5-0.6,0.7-0.9c0.1-0.1,0.1-0.1,0.2-0.2v0
	c0.2-0.2,0.4-0.5,0.6-0.7c0.1-0.1,0.2-0.2,0.3-0.4v0c0.6-0.7,1.2-1.5,1.7-2.2c0.2-0.2,0.3-0.4,0.5-0.6c0.7-1,1.4-2,2.1-3v0
	c0.3-0.4,0.5-0.8,0.8-1.1c0.2-0.4,0.5-0.8,0.8-1.1c0.2-0.4,0.5-0.8,0.8-1.2l0-0.1c0.2-0.4,0.5-0.8,0.7-1.2c0.2-0.3,0.4-0.6,0.6-0.9
	c0.1-0.2,0.2-0.4,0.4-0.6c0-0.1,0.1-0.1,0.1-0.2c0.3-0.5,0.6-1,0.8-1.5c0.3-0.6,0.7-1.2,1-1.7c0.1-0.2,0.2-0.5,0.4-0.7
	c0-0.1,0.1-0.2,0.1-0.2c0.2-0.3,0.3-0.6,0.4-0.9c0.2-0.3,0.3-0.6,0.5-0.9c0.1-0.3,0.3-0.6,0.4-0.9c0.1-0.2,0.2-0.4,0.3-0.7
	c0,0,0,0,0,0c0-0.1,0.1-0.2,0.1-0.3c0,0,0,0,0,0c0.1-0.2,0.2-0.5,0.3-0.7c0.1-0.3,0.3-0.6,0.4-0.9c0.1-0.2,0.2-0.4,0.3-0.6
	c0.1-0.3,0.3-0.6,0.4-0.9c0.1-0.3,0.3-0.6,0.4-0.9c0-0.1,0.1-0.2,0.1-0.2c0.1-0.1,0.1-0.3,0.2-0.4c0.2-0.4,0.3-0.8,0.5-1.1
	c0.2-0.4,0.3-0.8,0.5-1.3c0.2-0.4,0.3-0.8,0.5-1.2l0.1-0.1c2.3-6.1,4.1-12.5,5.3-18.9v0c0.7-3.7,1.1-7.4,1.4-11.1c0-0.2,0-0.4,0-0.6
	c0.2-2.5,0.3-5.1,0.3-7.6c0-1.1,0-2.2,0-3.4c-0.7-23.4-9.1-46-23.8-64.2c-0.3-0.4-0.6-0.8-1-1.2c-0.3-0.4-0.7-0.8-1-1.2
	c-38.6-45.3-106.7-50.6-151.9-12c-8.2,7-15.4,15.3-21.1,24.4c-0.5,0.8-1,1.6-1.5,2.4c-0.5,0.8-0.9,1.6-1.4,2.4
	C185.5,374.1,180.8,392.3,180.8,410.7z"/>
<path class="st2" d="M284.3,340.3c17.7,4.5,35.9,7.2,54.1,7.8c2.8,0.2,5.5,0.1,8.3-0.1c6.1-0.5,11.3-2.4,17.1-3.5
	c2.8-0.5,5.9-0.9,8.7-1.4c-0.6-0.8-1.3-1.6-2-2.4c-6,0.5-12.2,2.2-18.3,3c-10.4,1.3-22-0.2-29.9-3.8c-3.8-1.8-6.8-4-10.6-5.7
	c-0.5-0.3-1.1-0.4-1.7-0.5c-1.1,0-2.2,0.2-3.1,0.8c-6.4,3.2-15.7,5.8-24.3,4.4C282,339.4,283.2,340,284.3,340.3z"/>
<path class="st2" d="M246.2,351.6c-0.1,0-0.2,0-0.2,0c0.3-0.2,0.6-0.4,0.9-0.7L246.2,351.6z"/>
<path class="st2" d="M194.6,358c3.6,0.3,7.2,0.5,10.8,0.6c2.8,0.1,5.5,0.1,8.3-0.1c6.1-0.5,11.3-2.4,17.1-3.5
	c5.3-1,11.8-1.4,15.1-3.5c-8.7-1.5-17.7,1.6-26.7,2.7c-7.3,0.9-14.6,0.5-21.8-1.1C196.5,354.8,195.5,356.4,194.6,358z"/>
<path class="st5" d="M238.1,505.9c0.9,0.5,1.7,0.9,2.6,1.3c0.3,0.2,0.6,0.3,0.9,0.5c0.3,0.1,0.5,0.2,0.8,0.4c0.1,0,0.1,0.1,0.2,0.1
	c0.2,0.1,0.4,0.2,0.6,0.3c0.2,0.1,0.5,0.2,0.7,0.3c0.3,0.1,0.5,0.2,0.8,0.3c1,0.5,2,0.9,3,1.3c3.6,1.5,7.3,2.8,11.1,3.8
	c0.2,0,0.3,0.1,0.5,0.2c1.6,0.4,3.2,0.9,4.9,1.2c2.9,0.7,5.7,1.2,8.6,1.6h0c0.3,0,0.7,0.1,1,0.2c0,0,0.1,0,0.1,0c0,0,0,0,0,0
	c0.4,0,0.8,0.1,1.1,0.2c0,0,0.1,0,0.1,0c0.4,0,0.7,0.1,1.1,0.1c0.4,0,0.8,0.1,1.2,0.1c0.3,0,0.6,0.1,0.9,0.1c0,0,0.1,0,0.1,0
	c0.3,0,0.5,0,0.8,0.1h0c0.2,0,0.5,0,0.7,0.1c2.8,0.2,5.6,0.3,8.4,0.3c3.1,0,6.1-0.1,9.1-0.4h0c0.6-0.1,1.3-0.1,1.9-0.2
	c0.2,0,0.3,0,0.5,0c0,0,0.1,0,0.1,0c0,0,0.1,0,0.2,0c0,0,0.1,0,0.1,0c0.2,0,0.4,0,0.7-0.1l0.8-0.1c0.2,0,0.5-0.1,0.8-0.1
	c0.1,0,0.1,0,0.2,0c0.2,0,0.4,0,0.5-0.1c0.1,0,0.2,0,0.3,0c0.2,0,0.3,0,0.5-0.1h0c5.5-0.8,10.9-2,16.2-3.7c0.3-0.1,0.6-0.2,0.8-0.3
	c-2.6-12.2-10.8-22.5-22-27.9c1.4-1.3,2.3-3,2.7-4.9c0.5-2.4,0.1-4.9-1.3-7c-1.3-2-3.3-3.4-5.7-3.9l-14.8-3.1c-5-1-9.8,2.2-10.8,7.2
	c-0.2,0.7-0.2,1.5-0.2,2.2C254.9,485.6,244.6,495.5,238.1,505.9z"/>
<circle class="st6" cx="281.9" cy="430" r="30.9"/>
<path class="st7" d="M262.6,456.6c-3.3-2.2-6.7-6.6-8.9-9.8c-6-8.6-8.1-19.4-5.7-29.6c0.4-2,1.3-3.9,2.7-5.4
	c1.5-1.4,3.8-2.1,5.6-1.1c-1-2.6-0.8-5.5,0.4-8c1.2-2.5,3.1-4.6,5.3-6.3c8.7-6.7,20.3-8.1,30.3-3.6c1.9,0.9-1.2-6,0.8-5.3
	c2,0.8,4.2,0.7,6.2-0.1c1.9-1,8.2,4.7,7.5,2.7c4.7,2.1,6.8,7.7,4.7,12.4c-0.6,1.3-1.4,2.4-2.5,3.3c-1.6,1.3-3.6,2.1-5.3,3.3
	c-6.3,4.5-8.3,12.9-4.7,19.7c-1.8-1.2-3.8-2.1-6-2.6c-2.2-0.5-4.4,0-6.1,1.5c-1.4,1.6-2.1,3.7-1.9,5.8c0.1,2.1,0.6,4.2,0.6,6.3
	c0.2,6.1,3.5,17.8-1.3,21.1C280.5,463.3,267.1,459.7,262.6,456.6z"/>
<path class="st2" d="M303.1,275.4c-0.7,0-1.3-0.1-1.9-0.4c-1.8-0.7-3-2.5-3-4.5v-4.9c0-2.1-1.7-3.9-3.9-3.9c-2.7,0-4.9-2.2-4.9-4.9
	v-67c0-2.7,2.2-4.9,4.9-4.9h221.8c2.7,0,4.9,2.2,4.9,4.9v67c0,2.7-2.2,4.9-4.9,4.9H320.3c-1,0-2,0.4-2.7,1.1L306.5,274
	C305.6,274.9,304.4,275.4,303.1,275.4z"/>
<path class="st8" d="M303.1,276.4c-0.8,0-1.6-0.2-2.3-0.5c-2.2-0.9-3.6-3-3.6-5.4v-4.9c0-1.6-1.3-2.9-2.9-2.9
	c-3.2,0-5.9-2.6-5.9-5.9v-67c0-3.2,2.6-5.9,5.9-5.9h221.8c3.2,0,5.9,2.6,5.9,5.9v67c0,3.2-2.6,5.9-5.9,5.9H320.3
	c-0.8,0-1.5,0.3-2,0.8l-11.1,11.1C306.1,275.8,304.7,276.4,303.1,276.4z M294.3,186.1c-2.1,0-3.9,1.7-3.9,3.9v67
	c0,2.1,1.7,3.9,3.9,3.9c2.7,0,4.9,2.2,4.9,4.9v4.9c0,2.1,1.7,3.9,3.9,3.9c1,0,2-0.4,2.7-1.1l11.1-11.1c0.9-0.9,2.1-1.4,3.4-1.4
	h195.9c2.1,0,3.9-1.7,3.9-3.9v-67c0-2.1-1.7-3.9-3.9-3.9L294.3,186.1z"/>
<path class="st5" d="M497.1,215.4H317.2c-1.4,0-2.6-1.2-2.6-2.6s1.2-2.6,2.6-2.6h179.9c1.4,0,2.6,1.2,2.6,2.6
	S498.5,215.4,497.1,215.4z"/>
<path class="st4" d="M496.8,226.4H317.2c-1.4,0-2.6-1.2-2.6-2.6s1.2-2.6,2.6-2.6h179.5c1.4,0,2.6,1.2,2.6,2.6
	S498.2,226.4,496.8,226.4z"/>
<path class="st4" d="M496.6,237.4H317.2c-1.4,0-2.6-1.2-2.6-2.6s1.2-2.6,2.6-2.6h179.4c1.4,0,2.6,1.2,2.6,2.6S498,237.4,496.6,237.4
	z"/>
<path class="st1" d="M780.4,174.7c0,2.4-0.1,4.9-0.2,7.3c-0.2,2.9-0.5,5.7-0.9,8.6c-1.4,9.6-4.1,18.9-8,27.7
	c-0.2,0.4-0.4,0.9-0.6,1.3l-0.3,0.7c-0.1,0.2-0.2,0.4-0.3,0.6c-0.1,0.3-0.3,0.6-0.4,0.9c-0.2,0.4-0.3,0.7-0.5,1c0,0,0,0.1-0.1,0.1
	c-0.2,0.3-0.3,0.6-0.5,0.9c0,0.1-0.1,0.1-0.1,0.2c-0.2,0.3-0.3,0.7-0.5,1c-0.2,0.4-0.4,0.7-0.6,1.1c-0.5,0.9-1,1.8-1.5,2.6
	c-0.2,0.3-0.3,0.5-0.5,0.8c-0.1,0.2-0.3,0.5-0.4,0.7c-0.1,0.2-0.2,0.3-0.3,0.5c-0.2,0.3-0.3,0.5-0.5,0.8c-0.4,0.6-0.8,1.2-1.1,1.8h0
	c-0.2,0.3-0.3,0.5-0.5,0.8v0c-0.5,0.8-1.1,1.6-1.6,2.4c0,0,0,0,0,0c0,0,0,0,0,0c-0.4,0.6-0.9,1.3-1.3,1.9v0
	c-0.3,0.4-0.6,0.8-0.9,1.2c-0.2,0.3-0.5,0.6-0.7,1c0,0.1-0.1,0.1-0.2,0.2v0c-0.1,0.1-0.1,0.2-0.2,0.3c-1.1,1.4-2.2,2.7-3.3,4
	l-0.2,0.2c-0.1,0.1-0.1,0.1-0.2,0.2c-0.1,0.1-0.2,0.2-0.3,0.3c-0.1,0.1-0.2,0.2-0.3,0.3c-5.9,6.6-12.5,12.5-19.8,17.5
	c-1,0.7-2,1.3-3,1.9c-0.2,0.2-0.5,0.3-0.8,0.5c-0.1,0-0.2,0.1-0.2,0.2c-0.1,0.1-0.3,0.2-0.4,0.2c-0.1,0.1-0.3,0.2-0.4,0.2
	c-0.5,0.3-1.1,0.7-1.6,1c-0.1,0.1-0.3,0.2-0.4,0.2c-0.1,0.1-0.3,0.2-0.4,0.2c0,0,0,0,0,0h0v0h0c-0.7,0.4-1.4,0.8-2,1.1
	c-0.4,0.2-0.8,0.4-1.1,0.6c-0.9,0.5-1.7,0.9-2.6,1.3c-0.3,0.2-0.6,0.3-0.9,0.5c-0.3,0.1-0.5,0.2-0.8,0.4c-0.1,0-0.2,0.1-0.2,0.1
	c-0.2,0.1-0.4,0.2-0.7,0.3c-0.2,0.1-0.5,0.2-0.7,0.3c-0.3,0.1-0.5,0.2-0.8,0.3c-1,0.5-2,0.9-3,1.3c-3.6,1.5-7.3,2.8-11.1,3.8
	c-0.2,0-0.3,0.1-0.5,0.2c-1.6,0.5-3.2,0.9-4.9,1.2c-2.8,0.7-5.7,1.2-8.6,1.6h0c-0.3,0-0.7,0.1-1,0.2c0,0-0.1,0-0.1,0c0,0,0,0,0,0
	c-0.4,0-0.8,0.1-1.2,0.2c0,0-0.1,0-0.1,0c-0.4,0-0.7,0.1-1.1,0.1c-0.4,0-0.8,0.1-1.2,0.1c-0.3,0-0.6,0.1-0.9,0.1c0,0-0.1,0-0.1,0
	c-0.3,0-0.5,0-0.8,0.1h0c-0.2,0-0.5,0-0.7,0.1c-2.8,0.2-5.6,0.3-8.4,0.3c-3.1,0-6.1-0.1-9.1-0.4h0c-0.7-0.1-1.3-0.1-1.9-0.2
	c-0.2,0-0.3,0-0.5,0c0,0-0.1,0-0.1,0c0,0-0.1,0-0.2,0c0,0-0.1,0-0.1,0c-0.2,0-0.4,0-0.7-0.1l-0.8-0.1c-0.2,0-0.5-0.1-0.8-0.1
	c-0.1,0-0.1,0-0.2,0c-0.2,0-0.4,0-0.5-0.1c-0.1,0-0.2,0-0.3,0c-0.2,0-0.3,0-0.5-0.1h0c-5.5-0.8-10.9-2-16.2-3.7
	c-0.3-0.1-0.6-0.2-0.8-0.3c0,0,0,0,0,0c-0.1,0-0.2,0-0.2-0.1c-0.8-0.2-1.5-0.5-2.2-0.8c-1-0.3-2-0.7-3-1.1c-0.3-0.1-0.5-0.2-0.8-0.3
	c-0.5-0.2-1.1-0.4-1.6-0.7c-0.9-0.4-1.8-0.8-2.8-1.2c-0.8-0.4-1.7-0.8-2.5-1.2c0,0,0,0-0.1,0c-0.2-0.1-0.4-0.2-0.6-0.3h0
	c-4.6-2.2-9-4.7-13.3-7.6c-1.4-0.9-2.7-1.8-4-2.8c-1.1-0.8-2.1-1.6-3.1-2.4c-5.1-4.1-9.9-8.6-14.2-13.6v0c-0.3-0.3-0.6-0.7-0.9-1
	c0,0-0.1-0.1-0.1-0.1c-0.2-0.2-0.4-0.5-0.6-0.7v0c-0.2-0.3-0.5-0.6-0.7-0.9c-0.1-0.1-0.1-0.1-0.2-0.2v0c-0.2-0.2-0.4-0.5-0.6-0.7
	c-0.1-0.1-0.2-0.2-0.3-0.4v0c-0.6-0.7-1.2-1.5-1.7-2.2c-0.2-0.2-0.3-0.4-0.5-0.6c-0.7-1-1.4-2-2.1-3v0c-0.3-0.4-0.5-0.8-0.8-1.1
	c-0.2-0.4-0.5-0.8-0.8-1.1c-0.2-0.4-0.5-0.8-0.8-1.2l0-0.1c-0.2-0.4-0.5-0.8-0.7-1.2c-0.2-0.3-0.4-0.6-0.6-0.9
	c-0.1-0.2-0.2-0.4-0.4-0.6c0-0.1-0.1-0.1-0.1-0.2c-0.3-0.5-0.6-1-0.8-1.5c-0.3-0.6-0.7-1.1-1-1.7c-0.1-0.2-0.2-0.5-0.4-0.7
	c0-0.1-0.1-0.2-0.1-0.2c-0.2-0.3-0.3-0.6-0.4-0.9c-0.2-0.3-0.3-0.6-0.5-0.9c-0.1-0.3-0.3-0.6-0.4-0.9c-0.1-0.2-0.2-0.4-0.3-0.7
	c0,0,0,0,0,0c0-0.1-0.1-0.2-0.1-0.3c0,0,0,0,0,0c-0.1-0.2-0.2-0.5-0.3-0.7c-0.1-0.3-0.3-0.6-0.4-0.9c-0.1-0.2-0.2-0.4-0.3-0.6
	c-0.1-0.3-0.3-0.6-0.4-0.9c-0.1-0.3-0.3-0.6-0.4-0.9c0-0.1-0.1-0.2-0.1-0.2c-0.1-0.1-0.1-0.3-0.2-0.4c-0.2-0.4-0.3-0.8-0.5-1.1
	c-0.2-0.4-0.3-0.9-0.5-1.3c-0.2-0.4-0.3-0.8-0.5-1.2l-0.1-0.1c-2.3-6.1-4.1-12.5-5.3-18.9v0c-0.7-3.7-1.1-7.4-1.4-11.1
	c0-0.2,0-0.4,0-0.6c-0.2-2.5-0.3-5.1-0.3-7.6c0-1.1,0-2.2,0-3.4c0.7-23.4,9.1-46,23.8-64.2c0.3-0.4,0.6-0.8,1-1.2
	c0.3-0.4,0.7-0.8,1-1.2c38.6-45.3,106.7-50.6,151.9-12c8.2,7,15.4,15.3,21.1,24.4c0.5,0.8,1,1.6,1.5,2.4c0.5,0.8,0.9,1.6,1.4,2.4
	C775.7,138.1,780.4,156.3,780.4,174.7z"/>
<path class="st2" d="M676.9,104.3c-17.7,4.5-35.9,7.2-54.1,7.8c-2.8,0.2-5.5,0.1-8.3-0.1c-6.1-0.5-11.3-2.4-17.1-3.5
	c-2.8-0.5-5.9-0.9-8.7-1.4c0.6-0.8,1.3-1.6,2-2.4c6,0.5,12.2,2.2,18.3,3c10.4,1.3,22-0.2,29.9-3.8c3.8-1.8,6.8-4,10.6-5.7
	c0.5-0.3,1.1-0.4,1.7-0.5c1.1,0,2.2,0.2,3.1,0.8c6.4,3.2,15.7,5.8,24.3,4.4C679.2,103.4,678,104,676.9,104.3z"/>
<path class="st2" d="M715,115.6c0.1,0,0.2,0,0.2,0c-0.3-0.2-0.6-0.4-0.9-0.7L715,115.6z"/>
<path class="st2" d="M766.6,122c-3.6,0.3-7.2,0.5-10.8,0.6c-2.8,0.1-5.5,0.1-8.3-0.1c-6.1-0.5-11.3-2.4-17.1-3.5
	c-5.3-1-11.8-1.4-15.1-3.5c8.7-1.5,17.7,1.6,26.7,2.7c7.3,0.9,14.6,0.5,21.8-1.1C764.7,118.8,765.7,120.4,766.6,122z"/>
<ellipse class="st9" cx="660.5" cy="188.8" rx="32.4" ry="33.1"/>
<path class="st5" d="M723.1,269.9c-0.9,0.5-1.7,0.9-2.6,1.3c-0.3,0.2-0.6,0.3-0.9,0.5c-0.3,0.1-0.5,0.2-0.8,0.4
	c-0.1,0-0.2,0.1-0.2,0.1c-0.2,0.1-0.4,0.2-0.7,0.3c-0.2,0.1-0.5,0.2-0.7,0.3c-0.3,0.1-0.5,0.2-0.8,0.3c-1,0.5-2,0.9-3,1.3
	c-3.6,1.5-7.3,2.8-11.1,3.8c-0.2,0-0.3,0.1-0.5,0.2c-1.6,0.4-3.2,0.9-4.9,1.2c-2.8,0.7-5.7,1.2-8.6,1.6h0c-0.3,0-0.7,0.1-1,0.2
	c0,0-0.1,0-0.1,0c0,0,0,0,0,0c-0.4,0-0.8,0.1-1.2,0.2c0,0-0.1,0-0.1,0c-0.4,0-0.7,0.1-1.1,0.1c-0.4,0-0.8,0.1-1.2,0.1
	c-0.3,0-0.6,0.1-0.9,0.1c0,0-0.1,0-0.1,0c-0.3,0-0.5,0-0.8,0.1h0c-0.2,0-0.5,0-0.7,0.1c-2.8,0.2-5.6,0.3-8.4,0.3
	c-3.1,0-6.1-0.1-9.1-0.4h0c-0.7-0.1-1.3-0.1-1.9-0.2c-0.2,0-0.3,0-0.5,0c0,0-0.1,0-0.1,0c0,0-0.1,0-0.2,0c0,0-0.1,0-0.1,0
	c-0.2,0-0.4,0-0.7-0.1l-0.8-0.1c-0.2,0-0.5-0.1-0.8-0.1c-0.1,0-0.1,0-0.2,0c-0.2,0-0.4,0-0.5-0.1c-0.1,0-0.2,0-0.3,0
	c-0.2,0-0.3,0-0.5-0.1h0c-5.5-0.8-10.9-2-16.2-3.7c-0.3-0.1-0.6-0.2-0.8-0.3c2.6-12.2,10.8-22.5,22-27.9c-1.4-1.3-2.3-3-2.7-4.9
	c-0.5-2.4-0.1-4.9,1.3-7c1.3-2,3.3-3.4,5.7-3.9l14.8-3.1c5-1,9.8,2.2,10.8,7.2c0.2,0.7,0.2,1.5,0.2,2.2
	C706.3,249.6,716.6,259.5,723.1,269.9z"/>
<path class="st7" d="M747.1,174.4c-5.5-6.4-8.1-14.9-12.5-22.2c-4.4-7.3-12-13.8-20.1-12.1c-5.6,1.2-9.9,6.1-12.1,11.6
	c-2.2,5.5-2.6,11.5-3,17.5c0.1-12.2-7.9-24-18.9-27.9c-11-3.9-24.3,0.4-31.2,10.2c-6.3-5.8-15.9-6-22.4-0.5
	c-6.2,5.5-7.6,16.1-3,23.2s14.5,9.7,21.7,5.8l2.6,2.4c-1.4,5.1,1.4,11,6.1,12.9c3.8,1.5,9.2,1.3,10.6,5.3c1,2.8-0.9,5.8-2.9,7.9
	c-2,2.2-4.3,4.4-4.6,7.3c-0.4,4.5,4.3,7.6,8.5,8.6c10.2,2.3,21.5-2.4,27.3-11.4c0.1-0.2,0.2-0.3,0.4-0.5c6.6-8.5,9.5-19.4,7.9-30
	c-0.3-2.1,0-3.6,1.4-4.1c6.2-2.1,23.5,2.3,28.7,6.4c5.2,4,9.4,9.4,14.5,13.6c5,4.3,11.5,7.6,17.9,6.4c5.1-0.9,9.5-4.7,12.4-9.2
	c2.9-4.5,4.6-9.7,6.1-14.9C771.3,187.3,755.7,184.5,747.1,174.4z"/>
<path class="st1" d="M82.8,107.7c0,2.4,0.1,4.9,0.2,7.3c0.2,2.9,0.5,5.7,0.9,8.6c1.4,9.6,4.1,18.9,8,27.7c0.2,0.4,0.4,0.9,0.6,1.3
	l0.3,0.7c0.1,0.2,0.2,0.4,0.3,0.6c0.1,0.3,0.3,0.6,0.4,0.9c0.2,0.4,0.3,0.7,0.5,1c0,0,0,0.1,0.1,0.1c0.1,0.3,0.3,0.6,0.5,0.9
	c0,0.1,0.1,0.1,0.1,0.2c0.2,0.3,0.4,0.7,0.5,1c0.2,0.4,0.4,0.7,0.6,1.1c0.5,0.9,1,1.8,1.5,2.6c0.1,0.3,0.3,0.5,0.5,0.8
	c0.1,0.2,0.3,0.5,0.4,0.7c0.1,0.2,0.2,0.3,0.3,0.5c0.2,0.3,0.3,0.5,0.5,0.8c0.4,0.6,0.8,1.2,1.1,1.8h0c0.2,0.3,0.4,0.5,0.5,0.8v0
	c0.5,0.8,1.1,1.6,1.6,2.4c0,0,0,0,0,0c0,0,0,0,0,0c0.4,0.6,0.9,1.3,1.4,1.9v0c0.3,0.4,0.6,0.8,0.9,1.2c0.2,0.3,0.5,0.6,0.7,1
	c0,0.1,0.1,0.1,0.2,0.2v0c0.1,0.1,0.1,0.2,0.2,0.3c1.1,1.4,2.2,2.7,3.3,4l0.2,0.2c0.1,0.1,0.1,0.1,0.2,0.2c0.1,0.1,0.2,0.2,0.3,0.3
	c0.1,0.1,0.2,0.2,0.3,0.3c5.9,6.6,12.5,12.5,19.8,17.5c1,0.7,2,1.3,3,2c0.2,0.2,0.5,0.3,0.8,0.5c0.1,0,0.1,0.1,0.2,0.1
	c0.1,0.1,0.3,0.2,0.4,0.2c0.1,0.1,0.3,0.2,0.4,0.2c0.5,0.3,1.1,0.6,1.6,1c0.1,0.1,0.3,0.2,0.4,0.2c0.1,0.1,0.3,0.1,0.4,0.2
	c0,0,0,0,0,0h0v0h0c0.7,0.4,1.4,0.8,2,1.1c0.4,0.2,0.8,0.4,1.1,0.6c0.9,0.5,1.7,0.9,2.6,1.4c0.3,0.1,0.6,0.3,0.9,0.5
	c0.3,0.1,0.5,0.2,0.8,0.4c0.1,0,0.1,0.1,0.2,0.1c0.2,0.1,0.4,0.2,0.6,0.3c0.2,0.1,0.5,0.2,0.7,0.3c0.3,0.1,0.5,0.2,0.8,0.4
	c1,0.5,2,0.9,3,1.3c3.6,1.5,7.3,2.8,11.1,3.8c0.2,0,0.4,0.1,0.5,0.1c1.6,0.4,3.2,0.9,4.9,1.2c2.9,0.7,5.7,1.2,8.6,1.6h0
	c0.4,0,0.7,0.1,1,0.1c0,0,0.1,0,0.1,0c0,0,0,0,0,0c0.4,0,0.8,0.1,1.1,0.1c0,0,0.1,0,0.1,0c0.4,0,0.7,0.1,1.1,0.1
	c0.4,0,0.8,0.1,1.2,0.1c0.3,0,0.6,0.1,0.9,0.1c0,0,0.1,0,0.1,0c0.3,0,0.5,0,0.8,0.1h0c0.2,0,0.5,0,0.7,0.1c2.8,0.2,5.6,0.3,8.4,0.3
	c3.1,0,6.1-0.1,9.1-0.4h0c0.6-0.1,1.3-0.1,1.9-0.2c0.2,0,0.3,0,0.5,0c0,0,0.1,0,0.1,0c0,0,0.1,0,0.2,0c0,0,0.1,0,0.1,0
	c0.2,0,0.4,0,0.7-0.1l0.8-0.1c0.2,0,0.5-0.1,0.8-0.1c0.1,0,0.1,0,0.2,0c0.2,0,0.4,0,0.5-0.1c0.1,0,0.2,0,0.3,0c0.2,0,0.4,0,0.5-0.1
	h0c5.5-0.8,10.9-2,16.2-3.6c0.3-0.1,0.6-0.2,0.8-0.3c0,0,0,0,0,0c0.1,0,0.2,0,0.2-0.1c0.8-0.2,1.5-0.5,2.2-0.8c1-0.3,2-0.7,3-1.1
	c0.3-0.1,0.5-0.2,0.8-0.3c0.5-0.2,1.1-0.4,1.6-0.6c0.9-0.4,1.8-0.8,2.8-1.2c0.9-0.4,1.7-0.8,2.5-1.2c0,0,0,0,0.1,0
	c0.2-0.1,0.4-0.2,0.6-0.3h0c4.6-2.2,9-4.7,13.3-7.6c1.4-0.9,2.7-1.9,4-2.8c1.1-0.8,2.1-1.6,3.1-2.4c5.1-4.1,9.9-8.6,14.2-13.6v0
	c0.3-0.3,0.6-0.7,0.9-1c0,0,0.1-0.1,0.1-0.1c0.2-0.2,0.4-0.5,0.6-0.7v0c0.2-0.3,0.5-0.6,0.7-0.9c0.1-0.1,0.1-0.1,0.2-0.2v0
	c0.2-0.2,0.4-0.5,0.6-0.7c0.1-0.1,0.2-0.2,0.3-0.4v0c0.6-0.7,1.2-1.5,1.7-2.2c0.2-0.2,0.3-0.4,0.5-0.6c0.7-1,1.4-2,2.1-3v0
	c0.3-0.4,0.5-0.8,0.8-1.1c0.2-0.4,0.5-0.8,0.8-1.1c0.2-0.4,0.5-0.8,0.8-1.2l0-0.1c0.2-0.4,0.5-0.8,0.7-1.2c0.2-0.3,0.4-0.6,0.6-0.9
	c0.1-0.2,0.2-0.4,0.4-0.6c0-0.1,0.1-0.1,0.1-0.2c0.3-0.5,0.6-1,0.8-1.5c0.3-0.6,0.6-1.1,1-1.7c0.1-0.2,0.2-0.5,0.4-0.7
	c0-0.1,0.1-0.2,0.1-0.2c0.2-0.3,0.3-0.6,0.4-0.9c0.2-0.3,0.3-0.6,0.5-0.9c0.1-0.3,0.3-0.6,0.4-0.9c0.1-0.2,0.2-0.4,0.3-0.7
	c0,0,0,0,0,0c0-0.1,0.1-0.2,0.1-0.3c0,0,0,0,0,0c0.1-0.2,0.2-0.5,0.3-0.7c0.1-0.3,0.3-0.6,0.4-0.9c0.1-0.2,0.2-0.4,0.3-0.6
	c0.1-0.3,0.3-0.6,0.4-0.9c0.1-0.3,0.3-0.6,0.4-0.9c0-0.1,0.1-0.2,0.1-0.2c0.1-0.1,0.1-0.3,0.2-0.4c0.2-0.4,0.3-0.8,0.5-1.1
	c0.2-0.4,0.3-0.9,0.5-1.3c0.2-0.4,0.3-0.8,0.5-1.2l0.1-0.1c2.3-6.1,4.1-12.5,5.3-18.9v0c0.7-3.7,1.1-7.4,1.4-11.1c0-0.2,0-0.4,0-0.6
	c0.2-2.5,0.3-5.1,0.3-7.6c0-1.1,0-2.2,0-3.4c-0.7-23.4-9.1-46-23.8-64.2c-0.3-0.4-0.6-0.8-1-1.2c-0.3-0.4-0.7-0.8-1-1.2
	c-38.6-45.3-106.7-50.6-151.9-12c-8.2,7-15.4,15.3-21.1,24.4c-0.5,0.8-1,1.6-1.5,2.4c-0.5,0.8-0.9,1.6-1.4,2.4
	C87.5,71.1,82.8,89.3,82.8,107.7z"/>
<path class="st2" d="M186.3,37.3c17.7,4.5,35.9,7.2,54.1,7.8c2.8,0.2,5.5,0.1,8.3-0.1c6.1-0.5,11.3-2.4,17.1-3.5
	c2.8-0.5,5.9-0.9,8.7-1.4c-0.6-0.8-1.3-1.6-2-2.4c-6,0.5-12.2,2.2-18.3,3c-10.4,1.3-22-0.2-29.9-3.8c-3.8-1.8-6.8-4-10.6-5.7
	c-0.5-0.3-1.1-0.4-1.7-0.5c-1.1,0-2.2,0.2-3.1,0.8c-6.4,3.2-15.7,5.8-24.3,4.4C184,36.4,185.2,37,186.3,37.3z"/>
<path class="st2" d="M148.2,48.6c-0.1,0-0.2,0-0.2,0c0.3-0.2,0.6-0.4,0.9-0.7L148.2,48.6z"/>
<path class="st2" d="M96.6,55c3.6,0.3,7.2,0.5,10.8,0.6c2.8,0.1,5.5,0.1,8.3-0.1c6.1-0.5,11.3-2.4,17.1-3.5c5.3-1,11.8-1.4,15.1-3.5
	c-8.7-1.5-17.7,1.6-26.7,2.7c-7.3,0.9-14.6,0.5-21.8-1.1C98.5,51.8,97.5,53.4,96.6,55z"/>
<path class="st5" d="M140.1,202.9c0.9,0.5,1.7,0.9,2.6,1.4c0.3,0.1,0.6,0.3,0.9,0.5c0.3,0.1,0.5,0.2,0.8,0.4c0.1,0,0.1,0.1,0.2,0.1
	c0.2,0.1,0.4,0.2,0.6,0.3c0.2,0.1,0.5,0.2,0.7,0.3c0.3,0.1,0.5,0.2,0.8,0.4c1,0.5,2,0.9,3,1.3c3.6,1.5,7.3,2.8,11.1,3.8
	c0.2,0,0.4,0.1,0.5,0.1c1.6,0.5,3.2,0.9,4.9,1.2c2.9,0.7,5.7,1.2,8.6,1.6h0c0.4,0,0.7,0.1,1,0.1c0,0,0.1,0,0.1,0c0,0,0,0,0,0
	c0.4,0,0.8,0.1,1.1,0.1c0,0,0.1,0,0.1,0c0.4,0,0.7,0.1,1.1,0.1c0.4,0,0.8,0.1,1.2,0.1c0.3,0,0.6,0.1,0.9,0.1c0,0,0.1,0,0.1,0
	c0.3,0,0.5,0,0.8,0.1h0c0.2,0,0.5,0,0.7,0.1c2.8,0.2,5.6,0.3,8.4,0.3c3.1,0,6.1-0.1,9.1-0.4h0c0.6-0.1,1.3-0.1,1.9-0.2
	c0.2,0,0.3,0,0.5,0c0,0,0.1,0,0.1,0c0,0,0.1,0,0.2,0c0,0,0.1,0,0.1,0c0.2,0,0.4,0,0.7-0.1l0.8-0.1c0.2,0,0.5-0.1,0.8-0.1
	c0.1,0,0.1,0,0.2,0c0.2,0,0.4,0,0.5-0.1c0.1,0,0.2,0,0.3,0c0.2,0,0.4,0,0.5-0.1h0c5.5-0.8,10.9-2,16.2-3.6c0.3-0.1,0.6-0.2,0.8-0.3
	c-2.6-12.2-10.8-22.5-22-27.9c1.4-1.3,2.3-3,2.7-4.9c0.5-2.4,0.1-4.9-1.3-7c-1.3-2-3.3-3.4-5.7-3.9l-14.8-3.1c-5-1-9.8,2.2-10.8,7.2
	c-0.2,0.7-0.2,1.5-0.2,2.2C156.9,182.6,146.6,192.5,140.1,202.9z"/>
<circle class="st10" cx="198.8" cy="117.6" r="36.1"/>
<path class="st7" d="M193.6,151.8c-9,2.4-19-0.8-26-7s-11.5-14.9-14-23.9c-1.9-6.6-2.7-13.9,0.2-20.1s10.8-10.4,16.9-7.2
	c-3.8-4.4-1.9-11.6,2.5-15.4s10.4-4.8,16.2-5.4c8.3-0.9,16.9-0.9,24.9,1.8s15.1,8.6,17.6,16.6c5.2,2.4,11.4,1,15.1-3.4
	c0.9,5.1-1.6,10.2-6.3,12.4l12.2-3.9c2.1,4.4-1.6,9.9-6.3,11.3s-9.7-0.1-14.2-2.2s-8.8-4.6-13.6-5.4s-10.5,0.8-12.7,5.1
	c-1.2,2.3-1.2,5-1.9,7.4s-2.4,5-5,5.2c-1.6,0.1-3.2-0.7-4.8-0.6c-2,0.4-3.6,2-4.1,4c-0.4,2-0.4,4,0,6l3.1,23.6L193.6,151.8z"/>
</svg>
