<?xml version="1.0" encoding="utf-8"?>
<!-- Generator: Adobe Illustrator 26.0.0, SVG Export Plug-In . SVG Version: 6.00 Build 0)  -->
<svg version="1.1" id="Layer_1" xmlns="http://www.w3.org/2000/svg" xmlns:xlink="http://www.w3.org/1999/xlink" x="0px" y="0px"
	 viewBox="0 0 389.4 335.2" style="enable-background:new 0 0 389.4 335.2;" xml:space="preserve">
<style type="text/css">
	.st0{fill:#FFCA28;}
	.st1{fill:#00B25E;}
	.st2{fill:#E6E6E6;}
</style>
<path class="st0" d="M325.4,197.8c-0.1,62.7-51,113.4-113.7,113.2c-62.7-0.1-113.4-51-113.2-113.7c0.1-62.7,51-113.4,113.7-113.2
	c47.3,0.1,89.5,29.5,106,73.7c0.2,0.7,0.5,1.3,0.7,2v0c1,3,2,6,2.8,9C324.2,178.3,325.4,188,325.4,197.8z"/>
<path class="st1" d="M198.7,120.7c-10.4-5.6-22.8-6.1-33.6-1.4c-4.7,2-9.7,5.7-11.2,12.4c6.3-3.7,14.6,2.2,16.2,11.7l-0.4,0.1
	c-0.9,6.6,1.1,13.7,4.8,17.8c0.6-3.7,2.8-7,6-8.9c2.7-1.8,5.8-3.1,7.9-6.2c2.5-3.7,3.1-9,4.1-13.9
	C193.4,127.3,195.2,122.1,198.7,120.7z"/>
<path class="st1" d="M163.2,176.7c-1.8,2.6-4.1,4.3-6.2,6.4c-2.4,2.2-4,5.2-4.5,8.4c-0.3,2.3,0.1,4.6,0.1,7
	c-0.1,2.3-0.8,4.9-2.4,5.5c-2.5,0.9-4.4-3.7-7-4.1c-2-0.3-3.9,3-3.3,5.7s3.4,4,5,2.2c1.4,2.4,0.4,6.8-1.7,7.5
	c-0.2,1.5-0.5,3-0.7,4.6c-5.5-3.8-11-7.7-15.6-13.3c-5.2-6.2-8.4-13.8-9.2-21.8c-0.6-6.4,0.3-13.8-2.7-18.8c-2.4-4-6.4-4.8-10.1-4.6
	c-0.7,0-1.3,0.1-2,0.2c2.2-6.5,4.9-12.7,8.2-18.7c0.7-0.3,1.4-0.7,2-1.3c3.4-2.9,4.9-8.7,7.7-12.8c0.2-0.3,0.4-0.5,0.6-0.8
	c2.8-3.7,6.6-5.6,10.3-7.3c8.1-3.9,16.4-7.9,25-7.4l-2.4,0.2c-2.8,7.9-5.7,15.9-8.5,23.8c-0.4,1.2-0.9,2.4-1.3,3.7
	c-1.6,4.5-3.3,9.3-3,14.4c0.1,3,1.2,6.2,3.2,7.2c1.8,1,3.9-0.2,5.6-1.4c0.8-0.5,1.5-1,2.3-1.5c2.7-1.7,5.7-3.5,8.6-2.4
	c2.6,1.1,4.6,4.6,4.9,8.5C166.1,169.8,165.2,173.5,163.2,176.7z"/>
<path class="st1" d="M179.3,230.9c-7.9-4.9-15.8-9.7-23.7-14.6l0.1-0.3c-4.9,1.9-7,10.6-6.1,17.8s3.6,13.5,5,20.5
	c1.9,9.5,1.2,19.4-2.1,28.6c10.4-11.7,19.6-24.4,27.5-37.9c1.1-1.7,1.9-3.6,2.5-5.5c0.6-2.1,0.4-4.3-0.6-6.2
	C181.2,232.2,180.3,231.4,179.3,230.9z"/>
<path class="st1" d="M148,142.3c-0.9,2-1.1,4.3-0.4,6.4c0.8,1.7,2.2,3,3.9,3.6l4.4,2.2c1.5,0.7,3,1.4,4.5,0.9c1.8-0.7,3-3.5,2.7-6.1
	c-0.3-2.8-2.1-4.7-3.7-6.3c-2.3-2.3-4.5-4.5-6.8-6.8l-1.3,1.6C150,139,148.9,140.5,148,142.3z"/>
<path class="st1" d="M302,171.9c2,0.5,3.9,0.9,5.9,1.4c-0.3,6.6-3.6,12.8-8.1,15c-1.8,0.9-3.9,1.3-5.4,3c-1.4,1.6-2.1,4-2.7,6.4
	c-1.1,4.1-2.2,8.2-3.4,12.3c-1.2,4.4-2.8,9.3-5.9,10.9c-2.7,1.4-5.8-0.3-7.8-3.1c-2.1-2.8-3.3-6.6-4.6-10.2c0.1,4-1.8,7.9-4.4,9.3
	c-2.6,1.4-5.9,0.1-7.6-3c-1.3-2.2-1.8-5.2-3-7.4c-1.2-2.3-3.9-3.6-5.2-1.4c-0.9,1.4-0.8,3.6-1.2,5.4c-0.5,2.4-2.4,4.3-4.9,4.7
	c-2.2-0.1-4.3-1-5.8-2.7c-3.9-4-6.4-9.1-7.2-14.6c-0.6-2.6-0.5-5.4,0.2-8c0.8-2.5,2.7-4.4,4.5-3.9c1.2-2.6-1.2-6.1-3.4-5.7
	c-2.2,0.3-3.9,2.7-5.7,4.5c-1.8,1.8-4.3,3.1-6.1,1.3c0.1,1.4-1,2.5-2.3,2.6c-0.1,0-0.1,0-0.2,0c-1.2-0.3-2.3-0.9-3.3-1.7
	c-4.1-2.6-9.4-0.9-12.3,4c1.8-7.8,4.5-16.8,10.2-18.7c2.3-0.8,4.8-0.1,7-1.4c3.9-2.3,4.6-11.1,1.3-14.7c0.4,3.4,0.3,7.4-1.5,9.7
	c-1.8,2.3-5.6,0.8-5.4-2.6c-0.1,1.3-1.3,2.2-2.5,2.1c-0.7-0.1-1.4-0.5-1.8-1.1c-1.2-1.8-1.1-4.8-0.2-7c0.9-2,2.1-3.8,3.7-5.3
	c3-3.2,6.1-6.5,9.6-8.5c3.5-2,7.5-2.7,11-0.7c1.8,1.1,3.5,2.8,5.4,3.8c1.9,1.2,4.3,0.6,5.5-1.3v0l0,0c0,0,0-0.1,0.1-0.1
	c1.4-2.5,0.7-6.1,1.3-9.2c0.9-5.4,6.4-8,9.4-4.4c-2.3-0.6-4.6,2.1-4.9,5.3c-0.3,3.2,1.3,6.5,3.5,7.5c3.7,1.6,7.3-2.5,10-6.2
	c2.9-4,5.8-7.9,8.7-11.9c0.5-0.7,1-1.3,1.6-1.9c1.9-1.8,4.9-1.9,6.8-0.1c2.9,2.4,4.3,7.3,6.7,10.7c3.5,4.9,8.7,6.1,13.6,7
	c3.6,0.7,7.2,1.4,10.9,2.1c2.4,4.5,4.5,9.2,6.3,13.9C311.6,160.9,305.9,165.7,302,171.9z"/>
<path class="st1" d="M313.7,248.2c-2.7,5.5-5.9,10.8-9.5,15.8c-2.3-1-4.7,0.8-6.9,2.4c-2.2,1.7-4.9,3.4-7.2,1.8
	c-2.3-1.6-3.1-6.1-2.4-9.6c0.9-3.3,2.3-6.3,4.4-9c1.9-2.8,3.9-5.8,6.6-6.9c2.7-1.1,6.1,0.5,6.8,4.2l1.9-0.1c-1.1-1.4-0.5-4.4,0.9-5
	c1.6-0.6,3,1.6,4,3.6C312.8,246.4,313.3,247.3,313.7,248.2z"/>
<path class="st1" d="M241.7,221.4c-4,0.3-7.2-4.7-9.4-9.6s-4.1-10.5-7.7-13c-2.1-1.4-4.5-1.6-6.7-2.3c-2.6-0.7-4.7-2.5-5.7-5l-2.6-1
	c-3.6,1.8-6.9,4.1-9.7,6.9c-3.3,3.5-5.3,7.9-5.8,12.7c-0.5,5.1,1.3,10.8,4.7,12.8c2.7,1.5,5.8,0.6,8.5,2c3.4,1.7,5.4,6.8,6.1,11.8
	s0.6,10.2,1.1,15.2c0.5,5,2,10.3,5.1,12.9c3.9,3.2,9.6,0.5,11.3-5.3c0.9-2.9,0.8-6.2,1.5-9.2c1.1-5.3,4.2-9.2,6.6-13.5
	S243.3,226.5,241.7,221.4z"/>
<path class="st1" d="M201.8,169.5c0.4,0.3,0.7,0.7,1.1,1.1c0.7,1.2,0.7,2.6-0.1,3.8c1-0.1,1.9-0.5,2.5-1.3c0.7-0.8,1.4-1.8,1.9-2.7
	c0.5-0.7,0.7-1.5,0.6-2.4c-0.2-0.5-0.6-0.8-1-1.2c-0.4-0.8-0.7-1.7-0.9-2.6c-0.4-1.7-1.7-3.1-3.4-3.5l0.2,0c-0.7,0.4-1.1,1.2-0.9,2
	c0.1,0.8,0.6,1.4,0.6,2.3c-0.1,1.2-1.2,1.7-1.3,2.9C201.2,168.5,201.4,169.1,201.8,169.5z"/>
<path class="st1" d="M194.9,149.8L194.9,149.8c0.1-0.1,0.3-0.2,0.4-0.4L194.9,149.8z"/>
<path class="st1" d="M196.1,155.2c1-0.9,1.4-2.2,1.1-3.5c-0.3-1.3-1.3-2.2-2.3-2c-0.6,0.6-1.4,0.8-2.2,0.6c-0.6-0.2-1.2-0.5-1.8-0.1
	c-0.3,0.3-0.5,0.7-0.6,1.2c-0.2,0.6-0.4,1.2-0.6,1.7c-0.1,0.2-0.1,0.4-0.1,0.7c0.1,0.2,0.2,0.3,0.4,0.3l3.4,1
	C194.4,155.6,195.3,155.6,196.1,155.2z"/>
<path class="st1" d="M282.2,230.5c-0.5-0.9-1.1-1.7-1.6-2.6c-0.5-1-1.2-1.9-2.1-2.6c-0.8-0.7-1.9-0.6-2.6,0.2l0,0l0,0l0.1,0.5
	c1.4,1.5,2.4,3.4,2.8,5.4c0.1,0.9,0.1,1.8,0.2,2.7c0,0.8,0.4,1.6,1,2.2c0.8,0.6,1.8-0.3,2.4-1.3c0.5-0.8,0.8-1.8,0.7-2.8
	C282.8,231.6,282.6,231,282.2,230.5z"/>
<path class="st1" d="M290.5,231.6c0.1-0.8,0-1.6-0.2-2.4c0-1.1,0.2-2.1,0.8-3c0.6-0.8,1-1.8,1.3-2.7c0.1-0.4,0.1-0.9-0.1-1.3
	c-0.2-0.4-0.6-0.6-0.8-0.3l0.5,0.3c-0.7-0.1-1.4-0.1-2.1,0.1c-0.8,0.3-1.4,1-1.6,1.8c-0.1,0.6-0.2,1.3-0.4,1.9
	c-0.3,0.6-0.9,0.8-1.3,1.4c-0.5,1-0.5,2.2,0.1,3.2c0.5,0.8,1.2,1.4,2.1,1.7C289.3,232.4,290.2,232.4,290.5,231.6z"/>
<path class="st1" d="M305.2,236c0.2,0.6,0.5,1.2,0.9,1.7c0.7,0.7,1.7,0.3,2.5,0.1c1.6-0.2,3.2,0.4,4.1,1.7c-0.7-3.4-2.9-6.2-6.1-7.6
	c-2-0.7-4.1-1-6.2-1l-0.4,0.1C301,233.7,303.9,233.7,305.2,236z"/>
<path class="st1" d="M242.8,241.5L242.8,241.5l0.1-0.2L242.8,241.5z"/>
<path class="st1" d="M240.6,245.9c-0.5,0.9-0.9,1.8-1.3,2.8c-0.5,1.5-0.8,3.1-0.9,4.7c-0.1,0.9-0.1,2.1,0.4,2.5
	c0.3,0.2,0.8,0.2,1.1-0.1c0.3-0.3,0.6-0.7,0.8-1.1c1.1-1.9,2-4,2.6-6.1c0.6-2.3,0.5-4.7-0.4-6.9C242.1,243,241.3,244.4,240.6,245.9z
	"/>
<path class="st1" d="M219.1,130.7c0.7,0.7,1.8,0.9,2.7,0.5c1-0.4,1.8-1,2.6-1.7c0.6-0.5,1.2-1,1.6-1.7c0.5-0.8,0.6-1.7,0.3-2.6
	c-0.4-0.9-1.1-1.5-2-1.6c-1.3-0.4-2.5-0.8-3.8-1.1l0.9-0.8c-0.9-0.5-2,0.4-2.6,1.6c-0.4,0.8-0.6,1.6-0.8,2.4
	C217.6,127.4,218,129.2,219.1,130.7z"/>
<path class="st1" d="M241.4,123.2c0.7,0.8,2,0.9,2.8,0.2c0.7-0.5,1.2-1.4,1.3-2.3c0.1-1-0.4-2.1-1.1-2.2l0.2-0.9
	c-1.4-0.2-3-0.3-3.7,1.4C240.3,120.7,240.5,122.1,241.4,123.2z"/>
<ellipse class="st2" cx="149.3" cy="178.9" rx="8.4" ry="11.3"/>
<ellipse transform="matrix(0.9663 -0.2573 0.2573 0.9663 -73.5589 88.7699)" class="st2" cx="302.4" cy="325.4" rx="7.6" ry="5.3"/>
<ellipse transform="matrix(0.9663 -0.2573 0.2573 0.9663 -75.4582 76.09)" class="st2" cx="253" cy="326.3" rx="7.6" ry="5.3"/>
<ellipse transform="matrix(0.9663 -0.2573 0.2573 0.9663 -62.6871 89.644)" class="st2" cx="311.1" cy="284.3" rx="7.6" ry="5.3"/>
<ellipse transform="matrix(0.9924 -0.123 0.123 0.9924 -30.3937 42.1989)" class="st2" cx="326.5" cy="267.2" rx="3.3" ry="4.8"/>
<ellipse transform="matrix(0.9924 -0.123 0.123 0.9924 -26.5507 42.4171)" class="st2" cx="330.2" cy="236.2" rx="3.3" ry="4.8"/>
<ellipse transform="matrix(0.9924 -0.123 0.123 0.9924 -34.2628 36.7434)" class="st2" cx="280.4" cy="295.8" rx="3.3" ry="4.8"/>
<ellipse transform="matrix(0.9924 -0.123 0.123 0.9924 -35.1853 39.8849)" class="st2" cx="305.3" cy="304.8" rx="3.3" ry="4.8"/>
<ellipse transform="matrix(0.9924 -0.123 0.123 0.9924 -38.5659 36.3485)" class="st2" cx="275" cy="330.4" rx="3.3" ry="4.8"/>
<ellipse transform="matrix(0.9663 -0.2573 0.2573 0.9663 -71.1534 24.1864)" class="st2" cx="56.8" cy="283.9" rx="7.6" ry="5.3"/>
<ellipse transform="matrix(0.9663 -0.2573 0.2573 0.9663 -73.0526 11.5052)" class="st2" cx="7.4" cy="284.8" rx="7.6" ry="5.3"/>
<ellipse transform="matrix(0.9663 -0.2573 0.2573 0.9663 -60.2817 25.0612)" class="st2" cx="65.6" cy="242.8" rx="7.6" ry="5.3"/>
<ellipse transform="matrix(0.9924 -0.123 0.123 0.9924 -27.1554 11.6732)" class="st2" cx="80.9" cy="225.7" rx="3.3" ry="4.8"/>
<ellipse transform="matrix(0.9924 -0.123 0.123 0.9924 -23.3124 11.8914)" class="st2" cx="84.6" cy="194.7" rx="3.3" ry="4.8"/>
<ellipse transform="matrix(0.9924 -0.123 0.123 0.9924 -31.0245 6.2178)" class="st2" cx="34.8" cy="254.3" rx="3.3" ry="4.8"/>
<ellipse transform="matrix(0.9924 -0.123 0.123 0.9924 -31.947 9.3593)" class="st2" cx="59.8" cy="263.3" rx="3.3" ry="4.8"/>
<ellipse transform="matrix(0.9924 -0.123 0.123 0.9924 -35.3276 5.8229)" class="st2" cx="29.5" cy="288.9" rx="3.3" ry="4.8"/>
<ellipse transform="matrix(0.9663 -0.2573 0.2573 0.9663 -12.1661 95.0206)" class="st2" cx="356.9" cy="94" rx="7.6" ry="5.3"/>
<ellipse transform="matrix(0.9663 -0.2573 0.2573 0.9663 -14.0653 82.3393)" class="st2" cx="307.5" cy="94.9" rx="7.6" ry="5.3"/>
<ellipse transform="matrix(0.9663 -0.2573 0.2573 0.9663 -1.2936 95.8959)" class="st2" cx="365.7" cy="52.9" rx="7.6" ry="5.3"/>
<ellipse transform="matrix(0.9924 -0.123 0.123 0.9924 -1.505 47.1556)" class="st2" cx="381" cy="35.8" rx="3.3" ry="4.8"/>
<ellipse transform="matrix(0.9924 -0.123 0.123 0.9924 2.338 47.3738)" class="st2" cx="384.7" cy="4.8" rx="3.3" ry="4.8"/>
<ellipse transform="matrix(0.9924 -0.123 0.123 0.9924 -5.3741 41.7002)" class="st2" cx="334.9" cy="64.4" rx="3.3" ry="4.8"/>
<ellipse transform="matrix(0.9924 -0.123 0.123 0.9924 -6.2966 44.8416)" class="st2" cx="359.9" cy="73.4" rx="3.3" ry="4.8"/>
<ellipse transform="matrix(0.9924 -0.123 0.123 0.9924 -9.6771 41.3053)" class="st2" cx="329.6" cy="99" rx="3.3" ry="4.8"/>
<path class="st0" d="M43.3,296c-8.1,0-13.3-2-15.7-6c-4.6-7.9,3.1-21.7,22.8-41.1l1.7,1.7c-18.3,18-26.3,31.6-22.4,38.2
	c2.4,4.2,9.7,5.7,21,4.3c11.2-1.3,26.1-5.3,44.2-11.9c37.3-13.5,84.1-36.2,131.8-63.9c47.7-27.8,90.5-57.3,120.6-83.1
	c5.8-5,11-9.7,15.6-14.2c6-5.7,11.5-11.9,16.5-18.4c6.8-9.2,9-16.2,6.6-20.4c-4.1-7-21.2-6.3-48.2,1.9l-0.7-2.3
	c29-8.8,46.1-9.1,51-0.8c3,5.1,0.7,12.9-6.7,23c-5.1,6.7-10.7,12.9-16.8,18.7c-4.6,4.5-9.9,9.3-15.7,14.3
	c-30.2,25.9-73.2,55.5-121,83.3c-47.8,27.8-94.7,50.6-132.2,64.1c-18.3,6.6-33.3,10.6-44.7,12C48.5,295.8,45.9,296,43.3,296z"/>
</svg>
